<svg width="980" height="551" xmlns="http://www.w3.org/2000/svg" xmlns:xlink="http://www.w3.org/1999/xlink">
<line fill="transparent" stroke="#ffca3a" stroke-width="4" stroke-linecap="round" x1="474.02" y1="154.46" x2="474.02" y2="154.46"></line><path fill="#ffca3a" d="M 284.96 162.18 Q 284.96 162.18 294.49 161.19 304.02 160.19 324.06 160.19 344.09 160.19 373.13 160.19 402.18 160.19 422.44 160.19 442.70 160.19 458.26 158.73 473.82 157.27 485.89 156.06 497.96 154.85 508.20 153.60 518.45 152.36 524.69 152.67 530.93 152.98 530.93 152.98 530.93 152.99 530.93 152.99 530.93 153.00 524.93 154.66 518.93 156.33 508.64 157.58 498.36 158.83 486.27 160.04 474.19 161.25 458.45 162.72 442.70 164.19 422.44 164.19 402.18 164.19 373.13 164.19 344.09 164.19 324.06 164.19 304.02 164.19 294.49 163.20 284.96 162.20 284.96 162.19 Z" data-drauu_index="0"></path><path fill="#ffca3a" d="M 619.04 264.72 Q 619.04 264.72 615.96 265.72 612.88 266.71 606.50 266.26 600.12 265.82 593.49 262.94 586.86 260.07 583.18 252.30 579.50 244.54 579.29 244.42 579.08 244.29 578.91 244.13 578.74 243.96 578.61 243.75 578.48 243.55 578.40 243.32 578.33 243.09 578.31 242.85 578.29 242.61 578.33 242.37 578.37 242.13 578.47 241.91 578.56 241.69 578.71 241.50 578.86 241.31 579.04 241.16 579.23 241.01 579.45 240.90 579.67 240.80 579.91 240.75 580.14 240.71 580.38 240.72 580.62 240.73 580.85 240.80 581.09 240.87 656.34 251.37 731.60 261.88 763.71 267.11 795.83 272.35 809.06 276.09 822.28 279.83 823.30 282.19 824.32 284.54 824.54 284.63 824.76 284.72 824.96 284.87 825.15 285.01 825.31 285.19 825.46 285.38 825.57 285.59 825.67 285.81 825.73 286.05 825.78 286.28 825.77 286.52 825.77 286.76 825.70 287.00 825.64 287.23 825.52 287.44 825.40 287.65 825.24 287.82 825.07 288.00 824.87 288.13 824.67 288.26 824.44 288.34 824.21 288.42 823.97 288.45 823.73 288.47 823.50 288.43 823.26 288.40 815.20 290.65 807.15 292.90 781.86 293.31 756.58 293.71 728.23 291.22 699.89 288.73 684.61 286.65 669.32 284.56 662.58 281.97 655.84 279.38 652.87 276.00 649.91 272.62 649.66 269.33 649.42 266.04 649.42 266.04 649.43 266.03 649.43 266.03 649.44 266.03 651.22 268.06 653.00 270.09 655.24 272.94 657.48 275.79 663.69 278.20 669.89 280.60 685.06 282.67 700.24 284.75 728.38 287.23 756.52 289.71 781.34 289.37 806.16 289.03 815.24 286.79 824.32 284.54 824.54 284.63 824.76 284.72 824.96 284.87 825.15 285.01 825.31 285.19 825.46 285.38 825.57 285.59 825.67 285.81 825.73 286.05 825.78 286.28 825.77 286.52 825.77 286.76 825.70 287.00 825.64 287.23 825.52 287.44 825.40 287.65 825.24 287.82 825.07 288.00 824.87 288.13 824.67 288.26 824.44 288.34 824.21 288.42 823.97 288.45 823.73 288.47 823.50 288.43 823.26 288.40 821.81 285.69 820.36 282.98 807.77 279.64 795.19 276.29 763.11 271.07 731.04 265.84 655.27 255.19 579.50 244.54 579.29 244.42 579.08 244.29 578.91 244.13 578.74 243.96 578.61 243.75 578.48 243.55 578.40 243.32 578.33 243.09 578.31 242.85 578.29 242.61 578.33 242.37 578.37 242.14 578.47 241.91 578.56 241.69 578.71 241.50 578.86 241.31 579.04 241.16 579.23 241.01 579.45 240.90 579.67 240.80 579.90 240.75 580.14 240.71 580.38 240.72 580.62 240.73 580.85 240.80 581.09 240.87 585.01 248.87 588.94 256.87 594.71 259.36 600.47 261.84 606.67 262.28 612.88 262.71 615.96 263.71 619.04 264.70 619.04 264.71 Z" data-drauu_index="1"></path>
</svg>